<svg version="1.1" id="Layer_1" xmlns="http://www.w3.org/2000/svg" xmlns:xlink="http://www.w3.org/1999/xlink" x="0px" y="0px"
	 width="100%" viewBox="0 0 1024 1024" enable-background="new 0 0 1024 1024" xml:space="preserve">
<path fill="#26272B" opacity="1.000000" stroke="none" 
	d="
M677.000000,1025.000000 
	C452.833344,1025.000000 229.166672,1024.989136 5.500044,1025.093506 
	C1.750792,1025.095215 0.905801,1024.249146 0.906913,1020.500000 
	C1.007246,682.166687 1.007246,343.833344 0.906913,5.500028 
	C0.905801,1.750903 1.750902,0.905800 5.500028,0.906912 
	C343.833344,1.007255 682.166687,1.007255 1020.500000,0.906912 
	C1024.249146,0.905800 1025.094360,1.750902 1025.093262,5.500027 
	C1024.992920,343.833344 1024.992798,682.166687 1025.093140,1020.500000 
	C1025.094238,1024.249146 1024.249512,1025.098267 1020.499878,1025.094482 
	C906.166687,1024.978638 791.833313,1025.000000 677.000000,1025.000000 
z"/>
<path fill="#FAFAFA" opacity="1.000000" stroke="none" 
	d="
M396.689697,762.293884 
	C310.534515,719.799072 258.188263,651.527649 242.503983,557.320923 
	C228.740082,474.649017 249.354935,399.696228 303.280212,335.188660 
	C347.471069,282.325775 404.510590,250.852219 472.759552,240.978271 
	C549.672485,229.850876 619.532288,248.285263 682.207214,293.958038 
	C702.828979,308.985626 719.851624,327.760437 735.362854,347.895996 
	C741.261597,355.553253 741.640259,363.155212 737.138062,369.630249 
	C732.292664,376.598785 723.034546,380.105682 715.182129,378.066010 
	C710.310974,376.800720 707.320740,373.233887 704.439819,369.550110 
	C692.906738,354.803009 680.403259,340.937073 665.679260,329.333862 
	C615.180969,289.538696 557.738403,271.081940 493.656982,276.932678 
	C405.203308,285.008636 340.351440,330.048553 300.923523,408.953491 
	C259.164032,492.524445 271.876282,593.220398 329.832581,663.105042 
	C424.001251,776.655212 596.466614,779.121765 693.599670,668.254944 
	C698.972534,662.122314 703.688171,655.416687 709.007080,649.233582 
	C713.879517,643.569458 720.280029,641.664368 727.541382,643.476074 
	C734.508179,645.214233 739.324036,649.451538 741.392334,656.500244 
	C743.244202,662.811462 741.330566,668.298035 737.693359,673.416199 
	C725.965881,689.918274 712.637512,705.036743 697.442993,718.383484 
	C643.018799,766.188965 579.489502,789.827942 507.057953,788.601868 
	C468.582367,787.950562 431.907806,778.732300 396.689697,762.293884 
z"/>
<path fill="#FAFAFA" opacity="1.000000" stroke="none" 
	d="
M622.352905,341.653137 
	C641.851013,353.969543 658.585022,368.827515 672.591431,386.717529 
	C673.822754,388.290161 675.037170,389.883026 676.151672,391.539062 
	C682.608826,401.133423 681.330750,410.937164 672.848450,417.150452 
	C663.872314,423.725494 653.145325,422.670319 646.324036,413.727081 
	C629.927246,392.229675 609.650574,375.755127 585.134705,364.335114 
	C494.096466,321.927856 385.601807,368.529449 357.469513,463.315674 
	C329.967041,555.979858 382.231049,655.666260 485.385376,673.478210 
	C547.164246,684.145691 599.380188,664.539246 640.840149,617.180542 
	C643.362732,614.299011 645.628418,611.188904 648.201904,608.356201 
	C655.331665,600.508301 666.721680,599.419250 674.820374,605.697388 
	C682.952087,612.001099 684.425293,622.416138 677.617065,631.495178 
	C644.923523,675.093445 602.260498,703.239258 548.056091,711.612915 
	C496.482941,719.580017 447.724396,710.638184 403.501282,682.047119 
	C355.971985,651.318604 327.225616,607.488770 316.296173,552.201660 
	C299.880768,469.163361 333.157623,389.680908 404.125458,343.510956 
	C449.128296,314.233215 498.666992,305.271179 551.471741,314.662628 
	C576.652588,319.141113 600.196655,328.114624 622.352905,341.653137 
z"/>
<path fill="#FAFAFA" opacity="1.000000" stroke="none" 
	d="
M486.729065,598.444946 
	C523.577454,609.018982 555.108032,600.337830 582.002808,573.940491 
	C585.707886,570.303894 589.279785,566.588074 594.516174,565.180237 
	C602.492310,563.035889 610.834839,565.920654 615.334167,572.394653 
	C619.852173,578.895569 619.740540,586.780701 614.613770,593.821655 
	C606.651917,604.756287 596.431458,613.411682 584.952209,620.267151 
	C539.913757,647.164429 493.588684,649.179810 448.695557,621.790833 
	C402.961700,593.888916 382.028534,551.280884 387.509735,497.801697 
	C395.437469,420.452301 469.489166,369.909149 545.861145,388.508087 
	C569.971924,394.379761 591.362427,405.351746 608.851929,423.292938 
	C610.129272,424.603333 611.383850,425.949738 612.519775,427.381897 
	C620.373230,437.283752 619.878662,447.496552 611.229614,454.853760 
	C601.917480,462.774994 591.043335,461.840881 582.594666,452.393982 
	C547.896606,413.596436 488.734283,411.203857 451.309784,447.084686 
	C403.040070,493.363403 422.614075,577.814270 486.729065,598.444946 
z"/>
<path fill="#FBFBFB" opacity="1.000000" stroke="none" 
	d="
M775.593628,549.919678 
	C772.645203,550.952698 769.988953,551.040955 767.310608,551.040588 
	C691.314270,551.031006 615.317993,551.045410 539.321655,551.013916 
	C524.703125,551.007874 515.199341,539.370789 519.114685,526.455811 
	C521.335327,519.130920 527.008118,514.470947 534.859741,513.940857 
	C539.340393,513.638367 543.854065,513.793579 548.352905,513.796082 
	C620.349426,513.836609 692.345886,513.885559 764.342407,513.933350 
	C765.842346,513.934326 767.342285,513.934753 768.842163,513.949036 
	C779.441895,514.050110 786.232056,518.973145 788.017822,527.847473 
	C790.011841,537.756592 785.750977,545.536194 775.593628,549.919678 
z"/>
</svg>